<svg xmlns="http://www.w3.org/2000/svg" baseProfile="basic" viewBox="0 0 48.8 48.8" xmlns:v="https://vecta.io/nano"><path d="M39 36.8c2.1 3.2 3 5 3 6.7 0 3.5-2.6 5.3-6.2 5.3-1.6 0-2.6 0-5.1-1.3 0 0-1.6-1.5-5.5-1.4-3.9-.2-5.5 1.4-5.5 1.4-2.5 1.3-3.5 1.3-5.1 1.3-3.5 0-6.2-1.7-6.2-5.3 0-1.8 1-3.5 3-6.7 0 0 3.9-6.4 7.2-9.5 2.4-2.2 6-2.2 6-2.2h1.1s3.7 0 6 2.2c3.4 3.2 7.3 9.5 7.3 9.5zM16.6 20.9c3.7 0 6.7-4.7 6.7-10.4S20.3 0 16.6 0 9.9 4.7 9.9 10.4s3 10.5 6.7 10.5zM10.2 31c2.7-1.3 3.3-5.7 1.4-10s-5.8-6.7-8.5-5.4-3.3 5.7-1.4 10c2 4.2 5.8 6.6 8.5 5.4zm22-10.1c3.7 0 6.7-4.7 6.7-10.4S35.9 0 32.2 0s-6.7 4.7-6.7 10.4c0 5.8 3 10.5 6.7 10.5zm13.5-5.3c-2.7-1.3-6.5 1.2-8.5 5.4s-1.3 8.7 1.4 10 6.5-1.2 8.5-5.4 1.4-8.7-1.4-10z"/></svg>